:SAMPLES-PER-SECOND 30
:FRAME-RANGE 1-1700
:FULLY-SPECIFIED
:DEGREES
213
root  33.9124 36.8429 -24.9996 -7.75814 -17.9014 -3.89813
RightUpLeg  -8.55567 1.74297 5.97046
RightLeg  44.0629 -8.17533 -8.6917
RightFoot  -23.3075 0.330723 4.66206
RightToes  -1.16417e-010 0 -3.6325e-017
Spine  21.6734 -2.01083 -3.07134
Spine1  4.98721 -8.22165 10.771
HEad  -17.8537 -15.0853 7.90083
LeftShoulder1  3.60115 -6.73065 -29.1576
LeftArm  59.9346 -40.4403 -94.0694
LeftForeArm  15.5219 -9.28045 -16.851
LeftHand  -0.0311613 5.06799 2.02745
RightShoulder  14.3798 28.1967 38.9482
RightArm  44.6219 14.8462 20.0644
RightForeArm  14.1134 27.7389 5.2245
RightHand  1.18688 6.17353 11.5108
LeftUpLeg  -93.6088 24.0763 -69.7344
LeftLeg  121.3 -2.58957 3.42336
LeftFoot  10.9239 1.97026 -10.3319
LeftToes  1.03528e-008 1.55373e-010 -2.26046e-010
214
root  34.5116 38.0326 -24.1846 -8.23939 -17.6082 -1.00336
RightUpLeg  -5.48618 4.09909 1.72516
RightLeg  38.634 -9.14316 -8.02918
RightFoot  -18.2703 0.332962 7.53913
RightToes  -1.16417e-010 0 -3.6325e-017
Spine  21.1495 -1.35994 -2.70368
Spine1  3.08628 -7.25098 9.81815
HEad  -16.446 -21.0482 7.88484
LeftShoulder1  3.50641 -6.71874 -28.2503
LeftArm  61.3993 -39.6351 -94.1239
LeftForeArm  12.1993 -9.83813 -16.7277
LeftHand  -0.0308774 4.81989 1.17754
RightShoulder  14.2531 28.2066 38.5509
RightArm  44.4305 14.1266 20.2034
RightForeArm  14.4544 28.9522 5.48788
RightHand  1.27393 6.18793 12.3566
LeftUpLeg  -96.8785 23.9551 -72.4275
LeftLeg  121.301 -3.9495 5.47984
LeftFoot  11.9381 2.07261 -10.3962
LeftToes  1.03528e-008 1.55373e-010 -2.26046e-010
215
root  35.2139 39.1288 -23.4388 -8.33434 -17.4328 1.14609
RightUpLeg  -4.44128 6.12034 -1.39093
RightLeg  35.9228 -11.2127 -8.86229
RightFoot  -11.3298 -0.0780725 9.41754
RightToes  -1.16417e-010 0 -3.6325e-017
Spine  20.6551 -1.13083 -1.51081
Spine1  2.18698 -6.65726 8.77458
HEad  -15.6843 -24.803 7.58206
LeftShoulder1  3.43573 -6.77126 -27.3617
LeftArm  61.5658 -39.7347 -94.2005
LeftForeArm  10.1923 -9.86199 -16.8054
LeftHand  -0.0273938 4.79678 0.305908
RightShoulder  14.5007 29.1118 38.0491
RightArm  45.6761 14.4042 20.5047
RightForeArm  13.9851 28.8969 5.50099
RightHand  1.32475 6.06532 13.0025
LeftUpLeg  -99.3848 23.6038 -73.5697
LeftLeg  121.028 -4.95138 7.05928
LeftFoot  12.7234 2.0783 -10.0982
LeftToes  1.03528e-008 1.55373e-010 -2.26046e-010
216
root  35.893 39.988 -22.8422 -7.66806 -16.9981 2.09428
RightUpLeg  -6.25274 6.63387 -1.90665
RightLeg  37.3442 -16.8278 -13.5815
RightFoot  -3.50837 -0.0496579 0.376778
RightToes  -1.16417e-010 0 -3.6325e-017
Spine  20.4152 -0.987543 -0.98318
Spine1  1.93533 -6.54069 9.17936
HEad  -15.5367 -26.8365 7.75219
LeftShoulder1  3.39438 -6.80719 -26.8268
LeftArm  60.8635 -40.3191 -94.4381
LeftForeArm  10.6568 -9.50289 -16.9594
LeftHand  -0.0313213 4.97049 1.62868
RightShoulder  14.9416 30.2562 37.8126
RightArm  46.7159 15.5071 20.6145
RightForeArm  13.5791 28.201 5.36071
RightHand  1.42394 6.24419 13.767
LeftUpLeg  -100.954 23.0956 -73.5036
LeftLeg  120.335 -5.0569 7.41659
LeftFoot  12.2439 2.07025 -10.2561
LeftToes  1.03528e-008 1.55373e-010 -2.26046e-010
217
root  36.469 40.3032 -22.4141 -6.70286 -16.1338 2.81584
RightUpLeg  -9.472 5.34639 -1.10665
RightLeg  38.9976 -13.916 -12.0553
RightFoot  -3.30311 0.0364431 -0.837637
RightToes  -1.16417e-010 0 -3.6325e-017
Spine  20.635 -0.899743 -1.64691
Spine1  1.93851 -6.62097 9.50301
HEad  -15.4732 -28.1282 9.46132
LeftShoulder1  3.35598 -6.89095 -26.1685
LeftArm  61.1094 -40.8264 -94.8033
LeftForeArm  9.20497 -9.45763 -17.0466
LeftHand  -0.0286403 5.24181 0.33297
RightShoulder  15.2378 30.999 37.6927
RightArm  46.6627 16.7081 20.8512
RightForeArm  13.831 27.1612 5.10792
RightHand  1.50147 6.67797 13.9841
LeftUpLeg  -101.892 22.4306 -74.5079
LeftLeg  119.232 -4.82409 7.37
LeftFoot  11.1639 1.91489 -9.95029
LeftToes  1.03528e-008 1.55373e-010 -2.26046e-010
218
root  36.9416 40.1869 -22.0773 -5.46929 -14.6982 3.20692
RightUpLeg  -13.3099 1.14491 1.84964
RightLeg  39.9092 -12.3812 -11.1492
RightFoot  -5.70177 -0.00672024 -0.648657
RightToes  -1.16417e-010 0 -3.6325e-017
Spine  21.0832 -0.934602 -2.84962
Spine1  2.1155 -6.8536 9.70342
HEad  -16.2374 -29.3245 11.9268
LeftShoulder1  3.38111 -6.85841 -26.5255
LeftArm  60.298 -41.5605 -95.0529
LeftForeArm  9.74992 -9.07935 -17.1969
LeftHand  -0.0287788 5.32991 0.490815
RightShoulder  15.1665 31.2919 37.1233
RightArm  46.4216 17.4623 20.9462
RightForeArm  14.0178 26.5699 4.96411
RightHand  1.47159 6.66555 13.7166
LeftUpLeg  -101.592 22.1187 -75.9987
LeftLeg  117.85 -4.03546 6.44169
LeftFoot  10.3738 1.87297 -10.0773
LeftToes  1.03528e-008 1.55373e-010 -2.26046e-010
219
root  37.3011 39.7398 -21.7772 -3.81076 -12.8496 2.7984
RightUpLeg  -16.0896 -4.11222 7.13999
RightLeg  35.6663 -14.2904 -11.0198
RightFoot  -8.00861 -0.115495 2.10057
RightToes  -1.16417e-010 0 -3.6325e-017
Spine  21.4371 -1.04943 -3.79848
Spine1  2.33552 -7.15793 9.81929
HEad  -17.8544 -30.7096 15.4229
LeftShoulder1  3.42544 -6.88549 -26.8795
LeftArm  53.1376 -42.3651 -95.5495
LeftForeArm  17.129 -6.69184 -17.791
LeftHand  -0.0284195 5.5101 0.96181
RightShoulder  14.8725 31.1421 36.4877
RightArm  45.5815 17.5217 20.946
RightForeArm  14.1795 26.5449 4.94971
RightHand  1.41283 6.72862 13.0889
LeftUpLeg  -100.751 21.92 -76.9212
LeftLeg  116.802 -3.68731 6.10401
LeftFoot  11.5421 2.13763 -10.887
LeftToes  1.03528e-008 1.55373e-010 -2.26046e-010
220
root  37.5461 38.7854 -21.3762 -2.40844 -10.4751 2.50852
RightUpLeg  -16.7335 -10.6654 12.8632
RightLeg  25.9499 -13.1795 -7.10729
RightFoot  -7.6359 -0.351277 9.23122
RightToes  -1.16417e-010 0 -3.6325e-017
Spine  21.428 -1.2984 -4.69741
Spine1  2.33693 -7.47499 9.33215
HEad  -19.358 -32.972 18.9984
LeftShoulder1  3.48347 -6.95397 -27.2303
LeftArm  50.512 -42.568 -95.8358
LeftForeArm  20.2207 -5.87332 -17.9029
LeftHand  -0.0302035 5.58926 0.720757
RightShoulder  14.5599 30.495 36.4134
RightArm  44.811 16.5617 20.9195
RightForeArm  14.3539 26.96 5.03374
RightHand  1.40756 6.6254 13.1562
LeftUpLeg  -99.2582 21.7106 -77.688
LeftLeg  116.918 -4.06658 6.75128
LeftFoot  13.2275 2.54321 -12.0192
LeftToes  1.03528e-008 1.55373e-010 -2.26046e-010
221
root  37.7218 37.5527 -20.8496 -2.3788 -7.75602 3.30169
RightUpLeg  -17.4901 -13.5471 16.944
RightLeg  22.1904 -11.1401 -5.15062
RightFoot  -8.27625 0.472121 -19.4975
RightToes  -1.16417e-010 0 -3.6325e-017
Spine  21.4454 -1.20537 -5.7341
Spine1  2.74145 -7.58618 8.3704
HEad  -20.2843 -36.4769 21.1309
LeftShoulder1  3.58339 -7.07199 -27.8216
LeftArm  48.5248 -41.9292 -95.8628
LeftForeArm  23.2896 -5.43193 -17.8917
LeftHand  -0.0290302 5.37984 0.294369
RightShoulder  13.9839 29.1489 36.4653
RightArm  44.2173 14.2902 21.0967
RightForeArm  14.5492 27.605 5.16983
RightHand  1.37165 6.44343 13.021
LeftUpLeg  -96.7377 22.5799 -77.3443
LeftLeg  118.115 -3.94205 6.21307
LeftFoot  15.0585 3.23289 -14.1229
LeftToes  1.03528e-008 1.55373e-010 -2.26046e-010
222
root  37.9714 36.0649 -20.2798 -4.40601 -6.10521 2.99696
RightUpLeg  -20.9701 -4.61602 17.508
RightLeg  37.1576 -21.5705 -16.8783
RightFoot  -16.7649 -1.08089 -20.2078
RightToes  -1.16417e-010 0 -3.6325e-017
Spine  23.7982 -0.832017 -3.87115
Spine1  2.83319 -6.70982 6.37383
HEad  -22.5983 -39.885 22.7296
LeftShoulder1  3.66236 -6.96136 -28.9631
LeftArm  48.1091 -40.5526 -95.1453
LeftForeArm  26.8234 -5.59555 -17.7096
LeftHand  -0.0286593 5.30357 0.771216
RightShoulder  13.6765 27.661 37.5448
RightArm  44.6266 11.8652 20.598
RightForeArm  13.7385 28.73 5.47544
RightHand  1.23453 5.72084 12.4958
LeftUpLeg  -94.5473 24.603 -74.0759
LeftLeg  120.605 -3.33338 4.67766
LeftFoot  16.4568 3.43479 -14.2336
LeftToes  1.03528e-008 1.55373e-010 -2.26046e-010
